<svg width="16" height="16" viewBox="0 0 16 16" fill="none" xmlns="http://www.w3.org/2000/svg">
<path d="M1.07094 12.8915C1.3685 12.796 1.78975 12.7952 2.20436 12.8012C4.78695 12.7988 7.36954 12.7997 9.95213 12.804C10.1106 12.8044 10.1364 12.7563 10.1358 12.6126C10.1302 11.3906 10.1315 10.1686 10.1332 8.94664C10.1338 8.55819 10.4497 8.30455 10.8071 8.39905C10.9118 8.42859 11.0051 8.48916 11.0747 8.57278C11.1443 8.6564 11.187 8.75915 11.197 8.86748C11.2013 8.91715 11.1991 8.9674 11.1991 9.01739C11.1992 11.1336 11.1992 13.2499 11.1991 15.3661C11.1991 15.799 11 15.9998 10.5707 15.9999C7.61046 16 4.65019 15.9999 1.68993 15.9998C0.680817 15.9997 0.000281511 15.3177 0.000198149 14.3066C-8.63945e-05 10.8129 -8.63945e-05 7.31912 0.000198149 3.82537C0.000308187 2.81415 0.680494 2.13355 1.69089 2.13335C3.54591 2.13297 5.40093 2.13311 7.25596 2.13378C7.65954 2.13404 7.92046 2.47407 7.79982 2.83557C7.72428 3.06196 7.52503 3.19906 7.26066 3.19945C6.42757 3.20069 5.59447 3.20084 4.76138 3.19992C3.72279 3.19992 2.6842 3.20005 1.6456 3.20031C1.29043 3.20068 1.06737 3.41716 1.06726 3.76564C1.06629 6.77614 1.06615 9.78665 1.06685 12.7971C1.06686 12.8192 1.06871 12.8413 1.07094 12.8915ZM5.79942 13.8666C4.428 13.8666 3.05659 13.8668 1.68517 13.8671C1.6187 13.8641 1.5521 13.8683 1.48652 13.8795C1.35747 13.9072 1.24331 13.9819 1.16622 14.089C1.08912 14.1962 1.05459 14.3281 1.06933 14.4593C1.08406 14.5905 1.14702 14.7115 1.24596 14.7988C1.34491 14.8862 1.47279 14.9337 1.60477 14.932C2.33211 14.9354 3.05947 14.9332 3.78681 14.9332C5.84671 14.9332 7.9066 14.9344 9.9665 14.9368C10.1069 14.9372 10.1368 14.9099 10.136 14.7648C10.1368 14.5103 10.1368 14.2686 10.136 14.0155C10.1368 13.8864 10.1012 13.8633 9.98028 13.8637C8.58667 13.8682 7.19304 13.8666 5.79942 13.8666Z" fill="#404040"/>
<path d="M12.2657 0.5H12.2658C12.9056 0.499946 13.531 0.689716 14.0629 1.04529C14.5948 1.40086 15.0093 1.90624 15.2538 2.49747C15.4984 3.0887 15.562 3.73919 15.4367 4.3666C15.3113 4.99401 15.0027 5.57014 14.5498 6.02204C14.0968 6.47395 13.52 6.78132 12.8923 6.90526C12.2647 7.02919 11.6143 6.96411 11.0236 6.71826C10.4329 6.4724 9.92849 6.05683 9.5741 5.52414C9.21971 4.99144 9.03134 4.36558 9.03282 3.72578L9.03282 3.72523C9.03499 1.94662 10.4841 0.5 12.2657 0.5Z" stroke="#404040"/>
<path d="M5.60055 11.7332C4.71828 11.7332 3.836 11.7346 2.95374 11.7325C2.66117 11.7318 2.43229 11.5308 2.40237 11.2587C2.38844 11.1306 2.42142 11.0018 2.49521 10.8961C2.569 10.7904 2.6786 10.7151 2.80368 10.6841C2.85207 10.6723 2.90174 10.6667 2.95153 10.6673C4.71607 10.6665 6.48062 10.6665 8.24517 10.6673C8.53806 10.6675 8.76612 10.8678 8.79666 11.1406C8.81038 11.2715 8.77541 11.403 8.69842 11.5098C8.62144 11.6166 8.50782 11.6914 8.37924 11.7198C8.31374 11.7312 8.24721 11.7356 8.18079 11.7327C7.32071 11.7335 6.46063 11.7337 5.60055 11.7332Z" fill="#404040"/>
<path d="M6.68315 8.53325C7.1934 8.53325 7.70365 8.53334 8.2139 8.53351C8.55406 8.53418 8.79481 8.75152 8.79898 9.05869C8.80326 9.37355 8.56048 9.59935 8.21293 9.59963C7.18134 9.60046 6.14975 9.60046 5.11816 9.59963C4.77831 9.59935 4.53729 9.38091 4.53338 9.07394C4.52936 8.75781 4.77037 8.53421 5.11912 8.53353C5.64047 8.53251 6.16181 8.53241 6.68315 8.53325Z" fill="#404040"/>
<path d="M3.08854 8.53394C3.28761 8.53284 3.41079 8.55084 3.52688 8.6472C3.69827 8.78947 3.77225 9.00303 3.71074 9.2105C3.68226 9.31533 3.62202 9.40877 3.53829 9.47798C3.45456 9.54718 3.35145 9.58876 3.24314 9.597C3.12717 9.60492 3.0108 9.60507 2.89481 9.59743C2.76111 9.58732 2.63609 9.52737 2.54449 9.42946C2.4529 9.33154 2.40142 9.2028 2.40023 9.06873C2.39913 8.78497 2.61947 8.53284 2.90605 8.5344C2.96167 8.53466 3.01666 8.53394 3.08854 8.53394Z" fill="#404040"/>
<path d="M12.1669 3.76355L12.1668 3.76354C12.166 3.77959 12.1688 3.79562 12.1748 3.81049L11.712 3.99961L12.1748 3.81049C12.1809 3.82537 12.1902 3.83874 12.2019 3.84967L12.2121 3.85904L12.2119 3.85918C12.4212 4.06437 12.6309 4.27482 12.8381 4.48282C12.9617 4.6068 13.0843 4.7299 13.2055 4.8505L12.1669 3.76355ZM12.1669 3.76355L12.1672 3.75225M12.1669 3.76355L12.1672 3.75225M12.1672 3.75225C12.1716 3.56968 12.1706 3.38247 12.1696 3.20441M12.1672 3.75225L12.1696 3.20441M12.169 2.2584V2.25841C12.1684 2.42589 12.1686 2.59273 12.1687 2.76072C12.1688 2.83689 12.1688 2.91329 12.1688 2.99009L12.169 2.2584ZM12.169 2.2584C12.1691 2.22347 12.1746 2.19981 12.1797 2.18582C12.1833 2.17558 12.1868 2.17011 12.1885 2.1678C12.1909 2.16728 12.1954 2.16661 12.2026 2.16667H12.2026M12.169 2.2584L12.2026 2.16667M12.2026 2.16667C12.2099 2.16672 12.2139 2.16761 12.2156 2.16808C12.2164 2.16902 12.2349 2.19038 12.235 2.2509V2.25091M12.2026 2.16667L12.235 2.25091M12.235 2.25091C12.2353 2.33167 12.2357 2.4118 12.236 2.49143C12.2374 2.7985 12.2388 3.09818 12.2325 3.39873C12.227 3.52639 12.2502 3.65371 12.3004 3.77132C12.3498 3.88696 12.424 3.99023 12.5178 4.07383C12.718 4.26563 12.9132 4.46189 13.1134 4.6631C13.1577 4.70764 13.2022 4.75242 13.2471 4.79745L13.2472 4.79746M12.235 2.25091L13.2472 4.79746M13.2472 4.79746C13.2874 4.83782 13.2995 4.86582 13.303 4.87714C13.301 4.87987 13.2978 4.88372 13.293 4.88857L13.293 4.88858M13.2472 4.79746L13.293 4.88858M13.293 4.88858C13.2865 4.89518 13.2815 4.89899 13.2785 4.90105M13.293 4.88858L13.2785 4.90105M12.1696 3.20441C12.1692 3.1311 12.1688 3.05934 12.1688 2.9901L12.1696 3.20441ZM13.2785 4.90105C13.2685 4.89818 13.2428 4.88764 13.2055 4.8505L13.2785 4.90105Z" fill="#404040" stroke="#404040"/>
</svg>
